<svg xmlns="http://www.w3.org/2000/svg" xmlns:xlink="http://www.w3.org/1999/xlink" width="1920" zoomAndPan="magnify" viewBox="0 0 1440 809.999993" height="1080" preserveAspectRatio="xMidYMid meet" version="1.0"><defs><filter x="0%" y="0%" width="100%" height="100%" id="1d41761410"><feColorMatrix values="0 0 0 0 1 0 0 0 0 1 0 0 0 0 1 0 0 0 1 0" color-interpolation-filters="sRGB"/></filter><g/><mask id="a4a2125d9c"><g filter="url(#1d41761410)"><rect x="-144" width="1728" fill="#000000" y="-80.999999" height="971.999992" fill-opacity="0.75"/></g></mask><clipPath id="9e1b3676e5"><path d="M 0.667969 1.007812 L 795.945312 1.007812 L 795.945312 254.644531 L 0.667969 254.644531 Z M 0.667969 1.007812 " clip-rule="nonzero"/></clipPath><clipPath id="9d019dceb5"><path d="M 720.945312 254.644531 L 75.660156 254.644531 C 55.769531 254.644531 36.691406 246.742188 22.628906 232.679688 C 8.5625 218.613281 0.660156 199.535156 0.660156 179.644531 L 0.660156 76.007812 C 0.660156 56.117188 8.5625 37.042969 22.628906 22.976562 C 36.691406 8.910156 55.769531 1.007812 75.660156 1.007812 L 720.945312 1.007812 C 740.839844 1.007812 759.914062 8.910156 773.980469 22.976562 C 788.046875 37.042969 795.945312 56.117188 795.945312 76.007812 L 795.945312 179.644531 C 795.945312 199.535156 788.046875 218.613281 773.980469 232.679688 C 759.914062 246.742188 740.839844 254.644531 720.945312 254.644531 Z M 720.945312 254.644531 " clip-rule="nonzero"/></clipPath><linearGradient x1="0.00674858" gradientTransform="matrix(-0.990764, 0, 0, -0.990764, 795.95393, 254.645207)" y1="128" x2="802.70099" gradientUnits="userSpaceOnUse" y2="128" id="13504efd50"><stop stop-opacity="1" stop-color="rgb(0%, 0%, 0%)" offset="0"/><stop stop-opacity="1" stop-color="rgb(0.175476%, 0.175476%, 0.175476%)" offset="0.0078125"/><stop stop-opacity="1" stop-color="rgb(0.527954%, 0.527954%, 0.527954%)" offset="0.015625"/><stop stop-opacity="1" stop-color="rgb(0.880432%, 0.880432%, 0.880432%)" offset="0.0234375"/><stop stop-opacity="1" stop-color="rgb(1.231384%, 1.231384%, 1.231384%)" offset="0.03125"/><stop stop-opacity="1" stop-color="rgb(1.583862%, 1.583862%, 1.583862%)" offset="0.0390625"/><stop stop-opacity="1" stop-color="rgb(1.93634%, 1.93634%, 1.93634%)" offset="0.046875"/><stop stop-opacity="1" stop-color="rgb(2.288818%, 2.288818%, 2.288818%)" offset="0.0546875"/><stop stop-opacity="1" stop-color="rgb(2.641296%, 2.641296%, 2.641296%)" offset="0.0625"/><stop stop-opacity="1" stop-color="rgb(2.993774%, 2.993774%, 2.993774%)" offset="0.0703125"/><stop stop-opacity="1" stop-color="rgb(3.346252%, 3.346252%, 3.346252%)" offset="0.078125"/><stop stop-opacity="1" stop-color="rgb(3.69873%, 3.69873%, 3.69873%)" offset="0.0859375"/><stop stop-opacity="1" stop-color="rgb(4.051208%, 4.051208%, 4.051208%)" offset="0.09375"/><stop stop-opacity="1" stop-color="rgb(4.403687%, 4.403687%, 4.403687%)" offset="0.101563"/><stop stop-opacity="1" stop-color="rgb(4.756165%, 4.756165%, 4.756165%)" offset="0.109375"/><stop stop-opacity="1" stop-color="rgb(5.107117%, 5.107117%, 5.107117%)" offset="0.117188"/><stop stop-opacity="1" stop-color="rgb(5.459595%, 5.459595%, 5.459595%)" offset="0.125"/><stop stop-opacity="1" stop-color="rgb(5.812073%, 5.812073%, 5.812073%)" offset="0.132813"/><stop stop-opacity="1" stop-color="rgb(6.164551%, 6.164551%, 6.164551%)" offset="0.140625"/><stop stop-opacity="1" stop-color="rgb(6.517029%, 6.517029%, 6.517029%)" offset="0.148438"/><stop stop-opacity="1" stop-color="rgb(6.869507%, 6.869507%, 6.869507%)" offset="0.15625"/><stop stop-opacity="1" stop-color="rgb(7.221985%, 7.221985%, 7.221985%)" offset="0.164063"/><stop stop-opacity="1" stop-color="rgb(7.574463%, 7.574463%, 7.574463%)" offset="0.171875"/><stop stop-opacity="1" stop-color="rgb(7.926941%, 7.926941%, 7.926941%)" offset="0.179688"/><stop stop-opacity="1" stop-color="rgb(8.279419%, 8.279419%, 8.279419%)" offset="0.1875"/><stop stop-opacity="1" stop-color="rgb(8.631897%, 8.631897%, 8.631897%)" offset="0.195313"/><stop stop-opacity="1" stop-color="rgb(8.982849%, 8.982849%, 8.982849%)" offset="0.203125"/><stop stop-opacity="1" stop-color="rgb(9.335327%, 9.335327%, 9.335327%)" offset="0.210938"/><stop stop-opacity="1" stop-color="rgb(9.687805%, 9.687805%, 9.687805%)" offset="0.21875"/><stop stop-opacity="1" stop-color="rgb(10.040283%, 10.040283%, 10.040283%)" offset="0.226563"/><stop stop-opacity="1" stop-color="rgb(10.392761%, 10.392761%, 10.392761%)" offset="0.234375"/><stop stop-opacity="1" stop-color="rgb(10.745239%, 10.745239%, 10.745239%)" offset="0.242188"/><stop stop-opacity="1" stop-color="rgb(11.097717%, 11.097717%, 11.097717%)" offset="0.25"/><stop stop-opacity="1" stop-color="rgb(11.450195%, 11.450195%, 11.450195%)" offset="0.257812"/><stop stop-opacity="1" stop-color="rgb(11.802673%, 11.802673%, 11.802673%)" offset="0.265625"/><stop stop-opacity="1" stop-color="rgb(12.155151%, 12.155151%, 12.155151%)" offset="0.273438"/><stop stop-opacity="1" stop-color="rgb(12.507629%, 12.507629%, 12.507629%)" offset="0.28125"/><stop stop-opacity="1" stop-color="rgb(12.860107%, 12.860107%, 12.860107%)" offset="0.289062"/><stop stop-opacity="1" stop-color="rgb(13.21106%, 13.21106%, 13.21106%)" offset="0.296875"/><stop stop-opacity="1" stop-color="rgb(13.563538%, 13.563538%, 13.563538%)" offset="0.304688"/><stop stop-opacity="1" stop-color="rgb(13.916016%, 13.916016%, 13.916016%)" offset="0.3125"/><stop stop-opacity="1" stop-color="rgb(14.268494%, 14.268494%, 14.268494%)" offset="0.320312"/><stop stop-opacity="1" stop-color="rgb(14.620972%, 14.620972%, 14.620972%)" offset="0.328125"/><stop stop-opacity="1" stop-color="rgb(14.97345%, 14.97345%, 14.97345%)" offset="0.335938"/><stop stop-opacity="1" stop-color="rgb(15.325928%, 15.325928%, 15.325928%)" offset="0.34375"/><stop stop-opacity="1" stop-color="rgb(15.678406%, 15.678406%, 15.678406%)" offset="0.351562"/><stop stop-opacity="1" stop-color="rgb(16.030884%, 16.030884%, 16.030884%)" offset="0.359375"/><stop stop-opacity="1" stop-color="rgb(16.383362%, 16.383362%, 16.383362%)" offset="0.367188"/><stop stop-opacity="1" stop-color="rgb(16.73584%, 16.73584%, 16.73584%)" offset="0.375"/><stop stop-opacity="1" stop-color="rgb(17.086792%, 17.086792%, 17.086792%)" offset="0.382812"/><stop stop-opacity="1" stop-color="rgb(17.43927%, 17.43927%, 17.43927%)" offset="0.390625"/><stop stop-opacity="1" stop-color="rgb(17.791748%, 17.791748%, 17.791748%)" offset="0.398438"/><stop stop-opacity="1" stop-color="rgb(18.144226%, 18.144226%, 18.144226%)" offset="0.40625"/><stop stop-opacity="1" stop-color="rgb(18.496704%, 18.496704%, 18.496704%)" offset="0.414062"/><stop stop-opacity="1" stop-color="rgb(18.849182%, 18.849182%, 18.849182%)" offset="0.421875"/><stop stop-opacity="1" stop-color="rgb(19.20166%, 19.20166%, 19.20166%)" offset="0.429688"/><stop stop-opacity="1" stop-color="rgb(19.554138%, 19.554138%, 19.554138%)" offset="0.4375"/><stop stop-opacity="1" stop-color="rgb(19.906616%, 19.906616%, 19.906616%)" offset="0.445312"/><stop stop-opacity="1" stop-color="rgb(20.259094%, 20.259094%, 20.259094%)" offset="0.453125"/><stop stop-opacity="1" stop-color="rgb(20.611572%, 20.611572%, 20.611572%)" offset="0.460938"/><stop stop-opacity="1" stop-color="rgb(20.962524%, 20.962524%, 20.962524%)" offset="0.46875"/><stop stop-opacity="1" stop-color="rgb(21.315002%, 21.315002%, 21.315002%)" offset="0.476562"/><stop stop-opacity="1" stop-color="rgb(21.66748%, 21.66748%, 21.66748%)" offset="0.484375"/><stop stop-opacity="1" stop-color="rgb(22.019958%, 22.019958%, 22.019958%)" offset="0.492188"/><stop stop-opacity="1" stop-color="rgb(22.372437%, 22.372437%, 22.372437%)" offset="0.5"/><stop stop-opacity="1" stop-color="rgb(22.724915%, 22.724915%, 22.724915%)" offset="0.507812"/><stop stop-opacity="1" stop-color="rgb(23.077393%, 23.077393%, 23.077393%)" offset="0.515625"/><stop stop-opacity="1" stop-color="rgb(23.429871%, 23.429871%, 23.429871%)" offset="0.523437"/><stop stop-opacity="1" stop-color="rgb(23.782349%, 23.782349%, 23.782349%)" offset="0.53125"/><stop stop-opacity="1" stop-color="rgb(24.134827%, 24.134827%, 24.134827%)" offset="0.539062"/><stop stop-opacity="1" stop-color="rgb(24.487305%, 24.487305%, 24.487305%)" offset="0.546875"/><stop stop-opacity="1" stop-color="rgb(24.838257%, 24.838257%, 24.838257%)" offset="0.554688"/><stop stop-opacity="1" stop-color="rgb(25.190735%, 25.190735%, 25.190735%)" offset="0.5625"/><stop stop-opacity="1" stop-color="rgb(25.543213%, 25.543213%, 25.543213%)" offset="0.570312"/><stop stop-opacity="1" stop-color="rgb(25.895691%, 25.895691%, 25.895691%)" offset="0.578125"/><stop stop-opacity="1" stop-color="rgb(26.248169%, 26.248169%, 26.248169%)" offset="0.585938"/><stop stop-opacity="1" stop-color="rgb(26.600647%, 26.600647%, 26.600647%)" offset="0.59375"/><stop stop-opacity="1" stop-color="rgb(26.953125%, 26.953125%, 26.953125%)" offset="0.601563"/><stop stop-opacity="1" stop-color="rgb(27.305603%, 27.305603%, 27.305603%)" offset="0.609375"/><stop stop-opacity="1" stop-color="rgb(27.658081%, 27.658081%, 27.658081%)" offset="0.617188"/><stop stop-opacity="1" stop-color="rgb(28.010559%, 28.010559%, 28.010559%)" offset="0.625"/><stop stop-opacity="1" stop-color="rgb(28.363037%, 28.363037%, 28.363037%)" offset="0.632812"/><stop stop-opacity="1" stop-color="rgb(28.713989%, 28.713989%, 28.713989%)" offset="0.640625"/><stop stop-opacity="1" stop-color="rgb(29.066467%, 29.066467%, 29.066467%)" offset="0.648437"/><stop stop-opacity="1" stop-color="rgb(29.418945%, 29.418945%, 29.418945%)" offset="0.65625"/><stop stop-opacity="1" stop-color="rgb(29.771423%, 29.771423%, 29.771423%)" offset="0.664062"/><stop stop-opacity="1" stop-color="rgb(30.123901%, 30.123901%, 30.123901%)" offset="0.671875"/><stop stop-opacity="1" stop-color="rgb(30.476379%, 30.476379%, 30.476379%)" offset="0.679688"/><stop stop-opacity="1" stop-color="rgb(30.828857%, 30.828857%, 30.828857%)" offset="0.6875"/><stop stop-opacity="1" stop-color="rgb(31.181335%, 31.181335%, 31.181335%)" offset="0.695312"/><stop stop-opacity="1" stop-color="rgb(31.533813%, 31.533813%, 31.533813%)" offset="0.703125"/><stop stop-opacity="1" stop-color="rgb(31.886292%, 31.886292%, 31.886292%)" offset="0.710938"/><stop stop-opacity="1" stop-color="rgb(32.23877%, 32.23877%, 32.23877%)" offset="0.71875"/><stop stop-opacity="1" stop-color="rgb(32.589722%, 32.589722%, 32.589722%)" offset="0.726563"/><stop stop-opacity="1" stop-color="rgb(32.9422%, 32.9422%, 32.9422%)" offset="0.734375"/><stop stop-opacity="1" stop-color="rgb(33.294678%, 33.294678%, 33.294678%)" offset="0.742188"/><stop stop-opacity="1" stop-color="rgb(33.647156%, 33.647156%, 33.647156%)" offset="0.75"/><stop stop-opacity="1" stop-color="rgb(33.999634%, 33.999634%, 33.999634%)" offset="0.757812"/><stop stop-opacity="1" stop-color="rgb(34.352112%, 34.352112%, 34.352112%)" offset="0.765625"/><stop stop-opacity="1" stop-color="rgb(34.70459%, 34.70459%, 34.70459%)" offset="0.773437"/><stop stop-opacity="1" stop-color="rgb(35.057068%, 35.057068%, 35.057068%)" offset="0.78125"/><stop stop-opacity="1" stop-color="rgb(35.409546%, 35.409546%, 35.409546%)" offset="0.789062"/><stop stop-opacity="1" stop-color="rgb(35.762024%, 35.762024%, 35.762024%)" offset="0.796875"/><stop stop-opacity="1" stop-color="rgb(36.114502%, 36.114502%, 36.114502%)" offset="0.804688"/><stop stop-opacity="1" stop-color="rgb(36.465454%, 36.465454%, 36.465454%)" offset="0.8125"/><stop stop-opacity="1" stop-color="rgb(36.817932%, 36.817932%, 36.817932%)" offset="0.820312"/><stop stop-opacity="1" stop-color="rgb(37.17041%, 37.17041%, 37.17041%)" offset="0.828125"/><stop stop-opacity="1" stop-color="rgb(37.522888%, 37.522888%, 37.522888%)" offset="0.835938"/><stop stop-opacity="1" stop-color="rgb(37.875366%, 37.875366%, 37.875366%)" offset="0.84375"/><stop stop-opacity="1" stop-color="rgb(38.227844%, 38.227844%, 38.227844%)" offset="0.851563"/><stop stop-opacity="1" stop-color="rgb(38.580322%, 38.580322%, 38.580322%)" offset="0.859375"/><stop stop-opacity="1" stop-color="rgb(38.9328%, 38.9328%, 38.9328%)" offset="0.867188"/><stop stop-opacity="1" stop-color="rgb(39.285278%, 39.285278%, 39.285278%)" offset="0.875"/><stop stop-opacity="1" stop-color="rgb(39.637756%, 39.637756%, 39.637756%)" offset="0.882812"/><stop stop-opacity="1" stop-color="rgb(39.990234%, 39.990234%, 39.990234%)" offset="0.890625"/><stop stop-opacity="1" stop-color="rgb(40.341187%, 40.341187%, 40.341187%)" offset="0.898437"/><stop stop-opacity="1" stop-color="rgb(40.693665%, 40.693665%, 40.693665%)" offset="0.90625"/><stop stop-opacity="1" stop-color="rgb(41.046143%, 41.046143%, 41.046143%)" offset="0.914062"/><stop stop-opacity="1" stop-color="rgb(41.398621%, 41.398621%, 41.398621%)" offset="0.921875"/><stop stop-opacity="1" stop-color="rgb(41.751099%, 41.751099%, 41.751099%)" offset="0.929688"/><stop stop-opacity="1" stop-color="rgb(42.103577%, 42.103577%, 42.103577%)" offset="0.9375"/><stop stop-opacity="1" stop-color="rgb(42.456055%, 42.456055%, 42.456055%)" offset="0.945312"/><stop stop-opacity="1" stop-color="rgb(42.808533%, 42.808533%, 42.808533%)" offset="0.953125"/><stop stop-opacity="1" stop-color="rgb(43.161011%, 43.161011%, 43.161011%)" offset="0.960938"/><stop stop-opacity="1" stop-color="rgb(43.513489%, 43.513489%, 43.513489%)" offset="0.96875"/><stop stop-opacity="1" stop-color="rgb(43.865967%, 43.865967%, 43.865967%)" offset="0.976563"/><stop stop-opacity="1" stop-color="rgb(44.218445%, 44.218445%, 44.218445%)" offset="0.984375"/><stop stop-opacity="1" stop-color="rgb(44.569397%, 44.569397%, 44.569397%)" offset="0.992188"/><stop stop-opacity="1" stop-color="rgb(44.921875%, 44.921875%, 44.921875%)" offset="1"/></linearGradient><clipPath id="1ff2c169e3"><rect x="0" width="797" y="0" height="255"/></clipPath><clipPath id="9433a965fe"><path d="M 341.726562 304.011719 L 594.007812 304.011719 L 594.007812 556.296875 L 341.726562 556.296875 Z M 341.726562 304.011719 " clip-rule="nonzero"/></clipPath><clipPath id="a28e707ae1"><path d="M 467.867188 304.011719 C 398.203125 304.011719 341.726562 360.488281 341.726562 430.15625 C 341.726562 499.820312 398.203125 556.296875 467.867188 556.296875 C 537.535156 556.296875 594.007812 499.820312 594.007812 430.15625 C 594.007812 360.488281 537.535156 304.011719 467.867188 304.011719 Z M 467.867188 304.011719 " clip-rule="nonzero"/></clipPath></defs><g mask="url(#a4a2125d9c)"><g transform="matrix(1, 0, 0, 1, 403, 303)"><g clip-path="url(#1ff2c169e3)"><g clip-path="url(#9e1b3676e5)"><g clip-path="url(#9d019dceb5)"><path fill="url(#13504efd50)" d="M 795.945312 254.644531 L 795.945312 1.007812 L 0.667969 1.007812 L 0.667969 254.644531 Z M 795.945312 254.644531 " fill-rule="nonzero"/></g></g></g></g></g><g clip-path="url(#9433a965fe)"><g clip-path="url(#a28e707ae1)"><path fill="#ffcc00" d="M 341.726562 304.011719 L 594.007812 304.011719 L 594.007812 556.296875 L 341.726562 556.296875 Z M 341.726562 304.011719 " fill-opacity="1" fill-rule="nonzero"/></g></g><g fill="#ffffff" fill-opacity="1"><g transform="translate(642.16456, 473.750768)"><g><path d="M 41.265625 0 L 28.265625 0 C 22.078125 0 17.289062 -1.441406 13.90625 -4.328125 C 10.519531 -7.222656 8.828125 -11.910156 8.828125 -18.390625 L 8.828125 -114.078125 L 29 -114.078125 L 29 -24.375 C 29 -21.582031 29.519531 -19.613281 30.5625 -18.46875 C 31.613281 -17.320312 33.390625 -16.75 35.890625 -16.75 L 41.265625 -16.75 Z M 41.265625 0 "/></g></g></g><g fill="#ffffff" fill-opacity="1"><g transform="translate(687.319465, 473.750768)"><g><path d="M 48.4375 1.640625 C 39.863281 1.640625 32.363281 -0.222656 25.9375 -3.953125 C 19.507812 -7.691406 14.523438 -12.800781 10.984375 -19.28125 C 7.453125 -25.757812 5.6875 -33.140625 5.6875 -41.421875 C 5.6875 -46.898438 6.53125 -52.28125 8.21875 -57.5625 C 9.914062 -62.84375 12.507812 -67.601562 16 -71.84375 C 19.488281 -76.082031 23.875 -79.445312 29.15625 -81.9375 C 34.4375 -84.425781 40.664062 -85.671875 47.84375 -85.671875 C 53.226562 -85.671875 58.4375 -84.820312 63.46875 -83.125 C 68.5 -81.4375 73.007812 -78.820312 77 -75.28125 C 80.988281 -71.738281 84.15625 -67.226562 86.5 -61.75 C 88.84375 -56.269531 90.015625 -49.738281 90.015625 -42.15625 L 90.015625 -37.828125 L 26.609375 -37.828125 C 26.804688 -36.035156 27.203125 -34.265625 27.796875 -32.515625 C 28.398438 -30.773438 29.050781 -29.253906 29.75 -27.953125 C 31.75 -24.066406 34.414062 -21.050781 37.75 -18.90625 C 41.09375 -16.769531 44.90625 -15.703125 49.1875 -15.703125 C 53.976562 -15.703125 57.988281 -16.945312 61.21875 -19.4375 C 64.457031 -21.925781 66.726562 -24.867188 68.03125 -28.265625 L 88.65625 -28.265625 C 87.0625 -22.878906 84.519531 -17.914062 81.03125 -13.375 C 77.539062 -8.84375 73.101562 -5.207031 67.71875 -2.46875 C 62.34375 0.269531 55.914062 1.640625 48.4375 1.640625 Z M 27.515625 -52.921875 L 69.375 -52.921875 C 69.269531 -54.023438 68.992188 -55.273438 68.546875 -56.671875 C 68.097656 -58.066406 67.328125 -59.410156 66.234375 -60.703125 C 64.335938 -63.691406 61.816406 -65.929688 58.671875 -67.421875 C 55.535156 -68.921875 52.125 -69.671875 48.4375 -69.671875 C 44.75 -69.671875 41.382812 -68.921875 38.34375 -67.421875 C 35.3125 -65.929688 32.796875 -63.691406 30.796875 -60.703125 C 29.703125 -59.410156 28.929688 -58.066406 28.484375 -56.671875 C 28.035156 -55.273438 27.710938 -54.023438 27.515625 -52.921875 Z M 27.515625 -52.921875 "/></g></g></g><g fill="#ffffff" fill-opacity="1"><g transform="translate(783.01198, 473.750768)"><g><path d="M 45.453125 1.640625 C 39.078125 1.640625 33 0.617188 27.21875 -1.421875 C 21.4375 -3.460938 16.578125 -6.703125 12.640625 -11.140625 C 8.703125 -15.578125 6.234375 -21.285156 5.234375 -28.265625 L 25.125 -28.265625 C 26.414062 -23.671875 28.804688 -20.175781 32.296875 -17.78125 C 35.785156 -15.394531 40.117188 -14.203125 45.296875 -14.203125 C 49.585938 -14.203125 53.128906 -15.046875 55.921875 -16.734375 C 58.710938 -18.429688 60.109375 -20.828125 60.109375 -23.921875 C 60.109375 -26.410156 59.1875 -28.378906 57.34375 -29.828125 C 55.5 -31.273438 53.082031 -32.394531 50.09375 -33.1875 C 47.101562 -33.988281 43.8125 -34.738281 40.21875 -35.4375 C 36.632812 -36.132812 32.972656 -36.976562 29.234375 -37.96875 C 25.492188 -38.96875 22.078125 -40.335938 18.984375 -42.078125 C 15.898438 -43.828125 13.410156 -46.171875 11.515625 -49.109375 C 9.617188 -52.054688 8.671875 -55.867188 8.671875 -60.546875 C 8.671875 -66.429688 10.164062 -71.21875 13.15625 -74.90625 C 16.144531 -78.59375 20.101562 -81.304688 25.03125 -83.046875 C 29.96875 -84.796875 35.328125 -85.671875 41.109375 -85.671875 C 50.878906 -85.671875 59.050781 -83.203125 65.625 -78.265625 C 72.207031 -73.335938 76.25 -66.285156 77.75 -57.109375 L 58.765625 -57.109375 C 57.566406 -61.703125 55.320312 -64.96875 52.03125 -66.90625 C 48.738281 -68.851562 45.050781 -69.828125 40.96875 -69.828125 C 36.976562 -69.828125 33.8125 -69.050781 31.46875 -67.5 C 29.125 -65.957031 27.953125 -63.890625 27.953125 -61.296875 C 27.953125 -59.003906 28.847656 -57.207031 30.640625 -55.90625 C 32.441406 -54.613281 34.8125 -53.617188 37.75 -52.921875 C 40.6875 -52.222656 43.851562 -51.523438 47.25 -50.828125 C 50.9375 -50.128906 54.695312 -49.304688 58.53125 -48.359375 C 62.375 -47.421875 65.914062 -46.078125 69.15625 -44.328125 C 72.394531 -42.585938 75.007812 -40.195312 77 -37.15625 C 78.988281 -34.113281 79.984375 -30.203125 79.984375 -25.421875 C 79.984375 -17.242188 76.941406 -10.6875 70.859375 -5.75 C 64.785156 -0.820312 56.316406 1.640625 45.453125 1.640625 Z M 45.453125 1.640625 "/></g></g></g><g fill="#ffffff" fill-opacity="1"><g transform="translate(869.135244, 473.750768)"><g><path d="M 52.03125 0 L 35.4375 0 C 29.257812 0 24.445312 -1.441406 21 -4.328125 C 17.5625 -7.222656 15.84375 -11.910156 15.84375 -18.390625 L 15.84375 -67.734375 L 3.4375 -67.734375 L 3.4375 -83.875 L 15.84375 -83.875 L 15.84375 -114.078125 L 36.03125 -114.078125 L 36.03125 -83.875 L 52.1875 -83.875 L 52.1875 -67.734375 L 36.03125 -67.734375 L 36.03125 -24.515625 C 36.03125 -22.328125 36.40625 -20.484375 37.15625 -18.984375 C 37.90625 -17.492188 39.820312 -16.75 42.90625 -16.75 L 52.03125 -16.75 Z M 52.03125 0 "/></g></g></g><g fill="#ffffff" fill-opacity="1"><g transform="translate(926.401225, 473.750768)"><g><path d="M 19.28125 -93.140625 C 15.894531 -93.140625 12.976562 -94.1875 10.53125 -96.28125 C 8.09375 -98.375 6.875 -101.164062 6.875 -104.65625 C 6.875 -108.050781 8.09375 -110.816406 10.53125 -112.953125 C 12.976562 -115.097656 15.894531 -116.171875 19.28125 -116.171875 C 22.675781 -116.171875 25.59375 -115.097656 28.03125 -112.953125 C 30.476562 -110.816406 31.703125 -108.050781 31.703125 -104.65625 C 31.703125 -101.164062 30.476562 -98.375 28.03125 -96.28125 C 25.59375 -94.1875 22.675781 -93.140625 19.28125 -93.140625 Z M 29.3125 0 L 9.125 0 L 9.125 -83.875 L 29.3125 -83.875 Z M 29.3125 0 "/></g></g></g><g fill="#ffffff" fill-opacity="1"><g transform="translate(964.977265, 473.750768)"><g><path d="M 38.421875 1.640625 C 25.460938 1.640625 16.742188 -2.992188 12.265625 -12.265625 C 10.960938 -15.054688 10.035156 -18.117188 9.484375 -21.453125 C 8.941406 -24.796875 8.671875 -29.503906 8.671875 -35.578125 L 8.671875 -83.875 L 28.859375 -83.875 L 28.859375 -35.4375 C 28.859375 -31.144531 29.179688 -27.675781 29.828125 -25.03125 C 30.472656 -22.394531 31.492188 -20.28125 32.890625 -18.6875 C 35.285156 -16.195312 38.828125 -14.953125 43.515625 -14.953125 C 49.296875 -14.953125 53.582031 -16.644531 56.375 -20.03125 C 58.0625 -22.03125 59.28125 -24.695312 60.03125 -28.03125 C 60.78125 -31.375 61.15625 -35.785156 61.15625 -41.265625 L 61.15625 -83.875 L 81.34375 -83.875 L 81.34375 0 L 61.15625 0 L 61.15625 -10.609375 C 58.0625 -6.328125 54.742188 -3.210938 51.203125 -1.265625 C 47.671875 0.671875 43.410156 1.640625 38.421875 1.640625 Z M 38.421875 1.640625 "/></g></g></g><g fill="#ffffff" fill-opacity="1"><g transform="translate(1055.586109, 473.750768)"><g><path d="M 45.453125 1.640625 C 39.078125 1.640625 33 0.617188 27.21875 -1.421875 C 21.4375 -3.460938 16.578125 -6.703125 12.640625 -11.140625 C 8.703125 -15.578125 6.234375 -21.285156 5.234375 -28.265625 L 25.125 -28.265625 C 26.414062 -23.671875 28.804688 -20.175781 32.296875 -17.78125 C 35.785156 -15.394531 40.117188 -14.203125 45.296875 -14.203125 C 49.585938 -14.203125 53.128906 -15.046875 55.921875 -16.734375 C 58.710938 -18.429688 60.109375 -20.828125 60.109375 -23.921875 C 60.109375 -26.410156 59.1875 -28.378906 57.34375 -29.828125 C 55.5 -31.273438 53.082031 -32.394531 50.09375 -33.1875 C 47.101562 -33.988281 43.8125 -34.738281 40.21875 -35.4375 C 36.632812 -36.132812 32.972656 -36.976562 29.234375 -37.96875 C 25.492188 -38.96875 22.078125 -40.335938 18.984375 -42.078125 C 15.898438 -43.828125 13.410156 -46.171875 11.515625 -49.109375 C 9.617188 -52.054688 8.671875 -55.867188 8.671875 -60.546875 C 8.671875 -66.429688 10.164062 -71.21875 13.15625 -74.90625 C 16.144531 -78.59375 20.101562 -81.304688 25.03125 -83.046875 C 29.96875 -84.796875 35.328125 -85.671875 41.109375 -85.671875 C 50.878906 -85.671875 59.050781 -83.203125 65.625 -78.265625 C 72.207031 -73.335938 76.25 -66.285156 77.75 -57.109375 L 58.765625 -57.109375 C 57.566406 -61.703125 55.320312 -64.96875 52.03125 -66.90625 C 48.738281 -68.851562 45.050781 -69.828125 40.96875 -69.828125 C 36.976562 -69.828125 33.8125 -69.050781 31.46875 -67.5 C 29.125 -65.957031 27.953125 -63.890625 27.953125 -61.296875 C 27.953125 -59.003906 28.847656 -57.207031 30.640625 -55.90625 C 32.441406 -54.613281 34.8125 -53.617188 37.75 -52.921875 C 40.6875 -52.222656 43.851562 -51.523438 47.25 -50.828125 C 50.9375 -50.128906 54.695312 -49.304688 58.53125 -48.359375 C 62.375 -47.421875 65.914062 -46.078125 69.15625 -44.328125 C 72.394531 -42.585938 75.007812 -40.195312 77 -37.15625 C 78.988281 -34.113281 79.984375 -30.203125 79.984375 -25.421875 C 79.984375 -17.242188 76.941406 -10.6875 70.859375 -5.75 C 64.785156 -0.820312 56.316406 1.640625 45.453125 1.640625 Z M 45.453125 1.640625 "/></g></g></g><g fill="#000000" fill-opacity="1"><g transform="translate(451.974729, 475.625768)"><g><path d="M 48.9375 1.671875 C 40.457031 1.671875 32.957031 -0.195312 26.4375 -3.9375 C 19.925781 -7.675781 14.847656 -12.90625 11.203125 -19.625 C 7.566406 -26.34375 5.75 -34.144531 5.75 -43.03125 C 5.75 -51.613281 7.566406 -59.1875 11.203125 -65.75 C 14.847656 -72.320312 19.898438 -77.472656 26.359375 -81.203125 C 32.828125 -84.941406 40.351562 -86.8125 48.9375 -86.8125 C 59.144531 -86.8125 67.804688 -84.1875 74.921875 -78.9375 C 82.046875 -73.6875 86.664062 -66.664062 88.78125 -57.875 L 66.515625 -57.875 C 63.890625 -66.0625 58.03125 -70.15625 48.9375 -70.15625 C 42.375 -70.15625 37.019531 -67.675781 32.875 -62.71875 C 28.738281 -57.769531 26.671875 -51.207031 26.671875 -43.03125 C 26.671875 -34.539062 28.738281 -27.742188 32.875 -22.640625 C 37.019531 -17.546875 42.375 -15 48.9375 -15 C 53.882812 -15 57.875 -16.207031 60.90625 -18.625 C 63.9375 -21.050781 65.957031 -24.390625 66.96875 -28.640625 L 89.09375 -28.640625 C 87.78125 -22.273438 85.253906 -16.816406 81.515625 -12.265625 C 77.773438 -7.722656 73.101562 -4.265625 67.5 -1.890625 C 61.894531 0.484375 55.707031 1.671875 48.9375 1.671875 Z M 48.9375 1.671875 "/></g></g></g><g fill="#000000" fill-opacity="1"><g transform="translate(546.063504, 475.625768)"><g><path d="M 49.09375 1.671875 C 40.40625 1.671875 32.800781 -0.222656 26.28125 -4.015625 C 19.769531 -7.804688 14.71875 -12.984375 11.125 -19.546875 C 7.539062 -26.109375 5.75 -33.582031 5.75 -41.96875 C 5.75 -47.519531 6.609375 -52.972656 8.328125 -58.328125 C 10.046875 -63.679688 12.671875 -68.503906 16.203125 -72.796875 C 19.742188 -77.097656 24.191406 -80.507812 29.546875 -83.03125 C 34.898438 -85.550781 41.210938 -86.8125 48.484375 -86.8125 C 53.941406 -86.8125 59.21875 -85.953125 64.3125 -84.234375 C 69.414062 -82.523438 73.988281 -79.875 78.03125 -76.28125 C 82.070312 -72.695312 85.28125 -68.128906 87.65625 -62.578125 C 90.03125 -57.023438 91.21875 -50.410156 91.21875 -42.734375 L 91.21875 -38.328125 L 26.96875 -38.328125 C 27.164062 -36.515625 27.566406 -34.722656 28.171875 -32.953125 C 28.785156 -31.179688 29.445312 -29.640625 30.15625 -28.328125 C 32.175781 -24.390625 34.875 -21.332031 38.25 -19.15625 C 41.632812 -16.988281 45.5 -15.90625 49.84375 -15.90625 C 54.695312 -15.90625 58.765625 -17.164062 62.046875 -19.6875 C 65.328125 -22.21875 67.625 -25.203125 68.9375 -28.640625 L 89.84375 -28.640625 C 88.226562 -23.179688 85.648438 -18.15625 82.109375 -13.5625 C 78.578125 -8.96875 74.082031 -5.28125 68.625 -2.5 C 63.175781 0.28125 56.664062 1.671875 49.09375 1.671875 Z M 27.875 -53.640625 L 70.296875 -53.640625 C 70.203125 -54.742188 69.925781 -56.003906 69.46875 -57.421875 C 69.007812 -58.835938 68.226562 -60.203125 67.125 -61.515625 C 65.207031 -64.546875 62.65625 -66.816406 59.46875 -68.328125 C 56.289062 -69.847656 52.832031 -70.609375 49.09375 -70.609375 C 45.351562 -70.609375 41.941406 -69.847656 38.859375 -68.328125 C 35.785156 -66.816406 33.238281 -64.546875 31.21875 -61.515625 C 30.101562 -60.203125 29.316406 -58.835938 28.859375 -57.421875 C 28.410156 -56.003906 28.082031 -54.742188 27.875 -53.640625 Z M 27.875 -53.640625 "/></g></g></g><g fill="#000000" fill-opacity="1"><g transform="translate(422.297037, 470.811459)"><g><path d="M -11.21875 -25.78125 L -4.65625 -25.484375 L -14.90625 -2.875 L -21.046875 -3.15625 L -29.25 -26.578125 L -22.734375 -26.28125 L -17.875 -11.546875 L -17.34375 -11.515625 Z M -11.21875 -25.78125 "/></g></g><g transform="translate(423.537011, 442.664595)"><g><path d="M 5.640625 -6.640625 L 5.34375 0.078125 L -38.828125 -15.796875 L -38.53125 -22.53125 Z M 5.640625 -6.640625 "/></g></g><g transform="translate(424.502684, 420.744237)"><g><path d="M -13.859375 -26.53125 L -5.640625 -3.109375 L -12.203125 -3.40625 L -17.046875 -18.15625 L -17.578125 -18.1875 L -23.71875 -3.90625 L -30.234375 -4.203125 L -20 -26.8125 Z M -13.859375 -26.53125 "/></g></g></g></svg>